# xmcd
#
# Track frame offsets:
#	150
#	15492
#	30677
#	45215
#	60030
#	75347
#	91050
#	104112
#	119250
#	133335
#
# Disc length: 1993 seconds
#
# Revision: 4
# Processed by: cddbd v1.5.2PL0 Copyright (c) Steve Scherf et al.
# Submitted via: audiograbber 1.83.01
#
DISCID=6d07c70a
DTITLE=John Schneider - A Memory Like You
DYEAR=1986
DGENRE=Country
TTITLE0=What's A Memory Like You {Doing In A Love Like This}
TTITLE1=You're The Last Thing I Needed Tonight
TTITLE2=Who Cares
TTITLE3=Somebody's Gonna Love Her
TTITLE4=An Old Rainbow Jukebox And You
TTITLE5=If We Can't Have Forever (Let's Take Tonight}
TTITLE6=One More Night
TTITLE7=He Finally Made Up Her Mind
TTITLE8=The One Who Got Away
TTITLE9=Welcome Home
EXTD=
EXTT0=
EXTT1=
EXTT2=
EXTT3=
EXTT4=
EXTT5=
EXTT6=
EXTT7=
EXTT8=
EXTT9=
PLAYORDER=
